# xmcd CD database file
# 
# Track frame offsets:
# 	150
# 	23900
# 	42082
# 	58402
# 	76120
# 	100742
# 	118142
# 	144705
# 	176562
# 
# Disc length: 2525 seconds
# 
# Submitted via: Nero 5.5.2.4
# 
# Revision: 1
# Processed by: cddbd v1.4b41PL3 Copyright (c) Steve Scherf et al.
#
DISCID=7609db09
DTITLE=Willie Nelson - Willie Nelson Sings Kris Kristofferson
DYEAR=1900
DGENRE=
TTITLE0=Me And Bobby McGee
TTITLE1=Help Me Make It Through The Night
TTITLE2=The Pilgrim: Chapter 33
TTITLE3=Why Me
TTITLE4=For The Good Times
TTITLE5=You Show Me Yours (And I'll Show You Mine)
TTITLE6=Loving Her Was Easier (Than Anything I'll Ever Do Again)
TTITLE7=Sunday Mornin' Comin' DOwn
TTITLE8=Please Don't Tell Me How The Storey Ends
EXTD=
EXTT0=
EXTT1=
EXTT2=
EXTT3=
EXTT4=
EXTT5=
EXTT6=
EXTT7=
EXTT8=
PLAYORDER=
